<?xml version="1.0" standalone="no"?>
<!DOCTYPE svg PUBLIC "-//W3C//DTD SVG 20010904//EN"
 "http://www.w3.org/TR/2001/REC-SVG-20010904/DTD/svg10.dtd">
<svg version="1.0" xmlns="http://www.w3.org/2000/svg"
 width="758.000000pt" height="551.000000pt" viewBox="0 0 758.000000 551.000000"
 preserveAspectRatio="xMidYMid meet">
<metadata>
Created by potrace 1.16, written by Peter Selinger 2001-2019
</metadata>
<g transform="translate(0.000000,551.000000) scale(0.100000,-0.100000)"
fill="#000000" stroke="none">
<path d="M3093 4962 c-17 -3 -23 -10 -23 -28 0 -19 -6 -26 -29 -30 -23 -5 -31
-12 -33 -33 -3 -26 -3 -26 -91 -26 l-87 0 0 -27 0 -28 90 0 c89 0 90 0 90 25
0 21 5 25 30 25 27 0 30 3 30 30 l0 30 98 1 c53 0 91 3 85 6 -7 2 -13 16 -13
29 0 18 -6 24 -22 25 -13 0 -41 1 -63 2 -22 1 -50 1 -62 -1z"/>
<path d="M4118 4962 c-68 -3 -68 -3 -68 -32 l0 -30 90 0 90 0 0 -30 c0 -27 3
-30 30 -30 25 0 30 -4 30 -25 0 -25 1 -25 85 -25 l85 0 0 28 0 27 -82 0 -83 0
-3 28 c-2 18 -9 27 -21 27 -22 0 -41 19 -41 41 0 20 -24 25 -112 21z"/>
<path d="M3360 4643 l0 -28 260 0 260 0 0 28 0 27 -260 0 -260 0 0 -27z"/>
<path d="M2360 4515 c0 -8 -3 -14 -7 -14 -5 1 -54 1 -110 0 -101 -1 -103 -1
-103 -25 0 -29 -22 -48 -46 -40 -16 5 -16 4 -4 -5 10 -7 11 -11 3 -11 -9 0
-13 -20 -13 -64 0 -92 -3 -96 -66 -96 -48 0 -54 -2 -54 -21 0 -11 -4 -17 -10
-14 -5 3 -10 1 -10 -4 0 -7 27 -11 70 -11 68 0 70 1 70 25 0 21 5 25 30 25
l30 0 0 90 0 90 115 0 115 0 0 45 c0 25 -2 45 -5 45 -3 0 -5 -7 -5 -15z"/>
<path d="M3254 4502 c-16 -2 -20 -8 -17 -23 5 -17 -5 -24 -29 -20 -5 0 -8 -3
-8 -9 0 -6 52 -10 135 -10 l135 0 0 29 c0 25 5 30 28 33 15 2 -29 3 -98 3 -69
0 -135 -1 -146 -3z"/>
<path d="M3131 4449 c-14 -5 -30 -8 -37 -5 -15 6 -34 -13 -27 -29 6 -18 -24
-26 -110 -30 -66 -4 -71 -6 -72 -27 0 -17 -8 -24 -33 -29 -28 -6 -32 -4 -28
10 5 12 3 12 -8 -3 -8 -10 -19 -15 -25 -11 -11 6 -15 -7 -11 -34 1 -8 -4 -12
-14 -8 -8 3 -16 2 -18 -3 -2 -5 -18 -13 -37 -16 -27 -6 -33 -4 -27 7 4 8 -2 4
-13 -9 -32 -37 -18 -52 51 -52 60 0 60 0 56 28 -4 27 -3 27 52 27 53 0 55 1
58 28 3 26 5 27 63 27 59 0 59 0 59 30 l0 30 86 0 86 0 -4 34 c-2 19 0 32 4
30 4 -3 8 0 8 5 0 13 -26 13 -59 0z"/>
<path d="M4090 4451 c0 -6 5 -11 10 -11 6 0 10 -13 10 -30 l0 -30 90 0 90 0 0
-30 c0 -30 1 -30 55 -30 55 0 55 0 55 -31 0 -23 4 -30 18 -28 9 1 36 1 60 0
38 -1 42 -3 42 -26 0 -24 3 -25 53 -25 61 0 67 3 60 31 -3 12 -14 19 -29 19
-13 0 -24 6 -24 13 0 8 -3 7 -10 -3 -7 -12 -11 -10 -19 10 -5 14 -10 19 -10
13 -1 -21 -21 -14 -21 7 0 12 -7 20 -16 20 -9 0 -23 8 -30 18 -10 12 -13 13
-9 2 4 -11 -2 -16 -20 -18 -14 -1 -25 3 -25 9 0 5 -4 8 -9 5 -4 -3 -7 6 -5 19
2 23 -1 25 -39 26 -23 0 -53 2 -67 5 -64 10 -71 14 -68 37 3 19 -1 22 -30 20
-18 -1 -30 2 -27 7 3 5 -9 5 -27 0 -21 -7 -36 -6 -45 1 -9 8 -13 8 -13 0z"/>
<path d="M4780 4263 c0 -8 50 -53 59 -53 6 0 11 -5 11 -11 0 -5 3 -8 8 -6 6 3
306 -294 303 -300 -4 -9 3 -22 24 -48 l25 -30 0 53 c0 49 -2 52 -25 52 -20 0
-25 5 -25 25 0 21 -5 25 -30 25 -27 0 -30 3 -30 30 0 27 -3 30 -30 30 -27 0
-30 3 -30 30 0 27 -3 30 -30 30 -27 0 -30 3 -30 30 0 27 -3 30 -30 30 -27 0
-30 3 -30 30 0 25 -4 30 -25 30 -20 0 -25 5 -25 24 0 21 -5 24 -45 28 -25 2
-45 2 -45 1z"/>
<path d="M5330 4235 c0 -21 5 -25 30 -25 l30 0 0 -90 0 -90 30 0 c27 0 30 -3
30 -30 0 -25 4 -30 25 -30 21 0 25 5 25 30 0 25 -4 30 -25 30 -25 0 -25 0 -26
98 -1 53 -1 102 0 108 2 14 -31 24 -81 24 -34 0 -38 -3 -38 -25z"/>
<path d="M2600 4212 c-8 -3 -21 -11 -28 -19 -11 -11 -11 -13 1 -13 9 0 18 6
20 13 3 6 6 2 6 -10 1 -28 -15 -38 -34 -23 -13 10 -16 7 -21 -18 -3 -17 -14
-39 -25 -50 -10 -11 -15 -23 -11 -28 4 -4 1 -4 -6 0 -7 4 -10 12 -6 17 3 5 0
17 -7 25 -11 13 -9 15 12 11 13 -2 18 -2 12 0 -7 3 -13 12 -14 21 0 11 -2 12
-6 4 -2 -6 -8 -10 -13 -7 -4 3 -10 -4 -13 -15 -3 -11 -1 -18 3 -15 5 3 11 1
15 -5 4 -6 -7 -10 -27 -10 -30 0 -34 -3 -32 -27 1 -27 3 -28 58 -29 56 -2 57
-1 54 25 -3 23 1 26 30 29 28 3 32 7 32 33 0 26 3 29 31 29 28 0 30 2 27 32
-3 32 -22 42 -58 30z"/>
<path d="M5176 3702 c-3 -6 0 -13 6 -15 8 -3 6 -6 -4 -6 -15 -1 -18 -11 -18
-56 0 -52 1 -55 25 -55 24 0 25 -3 25 -60 l0 -60 30 0 c30 0 30 -1 30 -55 0
-54 0 -55 30 -55 17 0 30 -4 30 -10 0 -5 8 -10 18 -10 13 0 14 2 4 9 -13 8
-20 39 -21 94 -1 22 -5 27 -27 27 -20 0 -25 4 -20 16 3 8 2 13 -3 9 -5 -3 -8
12 -7 32 3 45 -2 63 -18 63 -24 0 -38 19 -42 60 -6 46 -28 88 -38 72z"/>
<path d="M1565 3640 c-3 -5 -19 -10 -34 -10 l-29 0 0 -90 c0 -89 0 -90 24 -90
20 0 24 -5 24 -30 0 -25 -4 -30 -25 -30 -20 0 -25 -5 -25 -25 0 -21 -5 -25
-30 -25 -27 0 -30 -3 -30 -30 0 -27 3 -30 30 -30 27 0 30 3 30 30 0 27 3 30
30 30 l30 0 -1 140 c-1 98 3 145 11 155 7 8 10 15 7 15 -3 0 -9 -4 -12 -10z"/>
<path d="M1950 3305 c0 -8 -6 -15 -12 -15 -9 0 -9 -3 -3 -8 6 -4 12 -17 12
-29 1 -16 -4 -23 -17 -23 -14 0 -18 5 -14 18 4 13 2 12 -7 -3 -7 -11 -17 -23
-23 -27 -7 -5 -7 -8 2 -8 8 0 11 -9 8 -27 -2 -16 -5 -32 -5 -37 -1 -4 -12 -5
-26 -2 -15 4 -25 2 -25 -4 0 -6 5 -8 10 -5 6 3 10 1 10 -4 0 -6 9 -11 21 -11
15 0 19 -5 15 -17 -3 -10 -6 -39 -8 -65 -1 -42 -5 -48 -23 -48 -18 0 -21 -5
-17 -30 4 -28 -2 -35 -29 -32 -3 1 -4 -11 -1 -25 5 -26 5 -26 13 -5 5 12 10
22 12 22 2 0 3 -115 3 -255 -1 -237 0 -255 17 -255 15 0 23 -22 18 -52 0 -5 4
-8 9 -8 6 0 10 132 10 375 l0 375 30 0 30 0 0 110 c0 61 -2 110 -5 110 -3 0
-5 -7 -5 -15z"/>
<path d="M5330 3238 l0 -78 30 0 30 0 0 -465 0 -465 -30 0 -30 0 0 -85 c0 -50
4 -85 10 -85 9 0 15 30 11 54 -1 5 7 6 19 3 18 -5 20 0 21 36 1 23 4 56 6 72
3 17 6 51 6 78 1 39 4 47 20 47 12 0 16 -4 11 -12 -5 -10 -4 -10 5 -2 8 7 12
50 13 125 1 63 5 116 10 120 4 3 3 21 -2 40 -6 18 -10 121 -9 226 0 106 -2
197 -6 202 -3 6 -12 8 -20 4 -9 -3 -15 1 -16 8 0 8 -2 23 -5 34 -5 25 -13 120
-13 162 -1 25 -5 31 -16 26 -9 -3 -22 2 -30 13 -13 17 -14 11 -15 -58z"/>
<path d="M6283 3282 l-373 -2 0 -30 0 -30 380 0 380 0 0 29 c0 17 -3 31 -7 33
-5 2 -176 2 -380 0z"/>
<path d="M2660 3233 c1 -41 3 -45 13 -32 11 14 36 17 170 18 148 0 157 -1 157
-19 0 -10 7 -26 16 -34 8 -9 11 -16 6 -16 -5 0 -12 -9 -15 -20 -4 -17 -15 -20
-113 -23 l-109 -3 123 -2 c92 -1 122 1 122 11 0 7 3 8 8 2 4 -5 13 -11 20 -12
8 -2 12 14 12 57 0 60 0 60 -30 60 -27 0 -30 3 -30 30 l0 30 -175 0 -175 0 0
-47z"/>
<path d="M3180 3250 c0 -27 -3 -30 -30 -30 l-30 0 0 -465 0 -465 59 0 c61 0
72 8 63 43 -3 11 -14 17 -31 17 -15 0 -35 6 -45 13 -22 16 -39 99 -24 109 8 4
9 40 3 115 -4 59 -9 216 -11 348 l-3 240 26 23 c24 20 36 22 140 22 l113 0 0
30 0 30 -115 0 -115 0 0 -30z"/>
<path d="M3760 3250 c0 -27 -3 -30 -30 -30 l-30 0 0 -438 0 -439 29 5 c23 3
29 0 28 -15 0 -10 1 -24 2 -30 1 -10 43 -13 176 -13 l175 0 0 59 c0 33 -3 62
-8 64 -4 3 -7 -9 -7 -26 l0 -32 -165 0 -165 0 -3 419 c-1 246 2 424 7 429 5 5
79 11 165 13 l156 3 6 -23 c3 -13 4 -37 2 -52 l-3 -29 -110 -6 -110 -5 118 -2
117 -2 0 90 0 90 -175 0 -175 0 0 -30z"/>
<path d="M4230 2785 l0 -495 200 0 200 0 0 85 0 85 -29 0 c-25 0 -28 -3 -23
-27 2 -16 8 -33 13 -38 4 -6 2 -18 -6 -28 -11 -16 -29 -17 -171 -15 l-159 3
-8 60 c-10 78 -5 781 6 792 5 4 80 8 168 7 87 0 159 4 159 8 0 5 10 7 23 5 12
-2 16 -2 10 0 -15 5 -18 43 -3 43 5 0 7 -8 3 -17 -5 -14 -3 -15 7 -6 7 6 9 16
6 22 -12 19 -34 12 -39 -11 l-4 -23 -2 23 c-1 22 -2 22 -176 22 l-175 0 0
-495z"/>
<path d="M3448 3213 c15 -3 22 -11 22 -27 0 -18 7 -25 30 -29 l30 -6 0 -171 0
-170 30 0 30 0 0 175 0 175 -30 0 c-27 0 -30 3 -30 30 0 30 -1 30 -52 29 -29
-1 -43 -4 -30 -6z"/>
<path d="M1058 3153 c271 -3 352 -6 352 -16 0 -8 4 -7 10 3 7 12 10 8 10 -15
0 -21 -3 -26 -9 -16 -6 9 -11 10 -15 2 -5 -8 -107 -11 -340 -11 l-332 0 1 -22
c0 -13 4 -29 9 -37 7 -10 6 -12 -3 -6 -10 6 -11 3 -2 -12 6 -11 7 -24 3 -28
-4 -5 1 -5 10 -2 11 4 23 -1 33 -16 14 -21 15 -19 15 26 l0 47 320 0 320 0 0
55 0 55 -367 -2 -368 -3 353 -2z"/>
<path d="M3868 3084 c-4 -6 -6 -20 -4 -31 2 -10 6 -69 8 -131 l3 -112 77 0
c79 0 90 -6 80 -42 -4 -15 -16 -18 -78 -18 -69 0 -74 -2 -74 -21 0 -16 3 -19
13 -12 6 6 35 9 62 8 74 -3 94 15 95 88 l0 57 -85 0 -84 0 -3 113 c-2 61 -6
107 -10 101z"/>
<path d="M2772 2989 c-1 -47 1 -107 4 -133 l7 -46 76 0 77 0 2 -30 2 -30 -80
0 c-79 0 -80 0 -80 -25 0 -25 1 -25 84 -25 l84 0 4 53 c1 28 2 67 0 85 l-3 32
-84 0 -84 0 -4 103 -3 102 -2 -86z"/>
<path d="M4400 2840 l0 -30 60 0 60 0 0 -55 c0 -55 0 -55 30 -55 l31 0 -2 85
-2 85 -88 0 -89 0 0 -30z"/>
<path d="M6430 2840 c0 -25 -4 -30 -25 -30 -24 0 -25 -3 -25 -55 0 -54 0 -55
-30 -55 -27 0 -30 -3 -30 -30 0 -27 3 -30 30 -30 l30 0 0 -60 c0 -57 1 -60 25
-60 21 0 25 -5 25 -30 0 -24 4 -30 21 -30 11 0 17 5 14 10 -4 6 -11 7 -17 4
-6 -4 -9 -3 -5 2 9 16 -19 109 -34 109 -8 0 -15 9 -16 20 -1 11 -5 37 -9 58
-6 35 -5 37 20 37 27 0 27 0 30 73 1 27 5 32 29 35 23 3 27 8 27 33 0 26 -3
29 -30 29 -27 0 -30 -3 -30 -30z"/>
<path d="M3522 2763 c-1 -7 -13 -13 -27 -13 -24 0 -25 -3 -25 -54 0 -44 3 -55
18 -59 22 -5 30 -37 39 -149 5 -68 8 -77 27 -80 19 -3 22 -10 17 -49 0 -6 -20
-9 -48 -7 l-48 3 -3 52 c-3 45 -6 52 -25 55 -17 2 -23 12 -28 43 -4 27 -7 7
-8 -57 l-1 -98 30 0 c27 0 30 -3 30 -30 l0 -30 60 0 60 0 0 115 0 115 -30 0
-29 0 -4 128 c-1 70 -4 121 -5 115z"/>
<path d="M3240 2525 l0 -175 30 0 30 0 0 145 0 145 30 0 c27 0 30 -3 30 -30 0
-25 4 -30 25 -30 24 0 25 3 25 60 l0 60 -85 0 -85 0 0 -175z"/>
<path d="M6551 2318 l-1 -28 -319 0 -320 0 -3 -27 c-2 -22 -9 -29 -30 -31 -24
-3 -28 -8 -28 -33 0 -27 2 -29 41 -29 34 0 39 2 30 14 -6 7 -9 21 -5 30 5 14
42 16 350 16 l344 0 0 30 c0 25 -4 30 -24 30 -19 0 -26 6 -29 28 l-4 27 -2
-27z"/>
<path d="M1903 2284 c-3 -8 -9 -11 -14 -8 -5 3 -9 0 -9 -5 0 -6 4 -11 9 -11 4
0 8 -8 8 -17 0 -78 2 -84 28 -77 16 4 25 2 25 -6 0 -6 -5 -8 -12 -4 -9 5 -8 2
1 -9 14 -18 18 -35 20 -104 1 -39 4 -43 25 -43 22 0 25 -4 22 -35 -2 -19 0
-33 4 -30 4 3 8 -7 8 -20 0 -14 -6 -25 -14 -25 -8 0 -11 7 -8 18 5 14 4 15 -5
2 -16 -22 -13 -30 9 -30 11 0 20 -6 20 -12 0 -9 3 -9 9 1 5 8 16 11 26 8 9 -4
13 -11 10 -17 -3 -5 -1 -10 4 -10 6 0 11 20 11 45 0 43 -1 45 -30 45 l-30 0 0
90 0 90 -30 0 -30 0 0 84 c0 82 -1 84 -26 89 -16 3 -28 0 -31 -9z"/>
<path d="M697 2224 c-4 -4 -7 -14 -7 -23 0 -21 80 -25 117 -6 21 11 29 12 35
2 4 -7 8 -8 8 -4 0 4 9 3 20 -3 15 -8 20 -8 20 2 0 9 3 9 10 -2 9 -13 10 -13
10 0 0 12 2 13 9 1 7 -11 9 -11 14 0 3 8 6 10 6 4 1 -12 410 -13 429 -1 7 4
12 3 12 -2 0 -5 13 -12 28 -14 25 -4 28 -1 24 22 l-4 26 -311 -3 c-172 -2
-321 -4 -332 -5 -11 0 -34 2 -50 6 -17 4 -33 4 -38 0z"/>
<path d="M630 2115 l0 -55 404 0 c222 0 418 -3 435 -6 24 -5 31 -12 31 -30 0
-19 5 -24 24 -24 13 0 27 -6 29 -12 3 -7 6 6 6 30 1 40 0 42 -29 42 -27 0 -30
3 -30 30 l0 30 -405 0 -405 0 0 25 c0 21 -5 25 -30 25 -30 0 -30 -1 -30 -55z"/>
<path d="M6183 2063 l-443 -3 0 -90 c0 -82 2 -90 19 -90 17 0 31 -18 31 -41 0
-6 -10 -9 -22 -7 -19 2 -24 -2 -26 -26 -4 -33 14 -49 39 -35 14 7 17 21 15 66
-5 103 -5 103 -25 103 -14 0 -18 7 -17 30 1 21 6 30 19 30 10 0 17 8 17 19 0
10 7 22 16 25 9 3 198 6 420 6 263 0 404 3 404 10 0 6 -1 9 -2 8 -2 -2 -202
-4 -445 -5z"/>
<path d="M5270 2001 l0 -61 -30 0 c-30 0 -30 -1 -30 -55 0 -52 -1 -55 -25 -55
-23 0 -25 -3 -25 -49 0 -54 10 -68 37 -51 15 9 14 10 -7 5 -21 -5 -22 -4 -7 5
9 6 15 16 11 21 -3 5 0 8 8 7 7 -2 12 5 12 14 -1 10 2 16 6 13 4 -3 14 3 21
12 12 14 11 15 -11 9 -19 -6 -21 -5 -10 3 8 6 22 11 31 11 17 0 28 44 32 122
1 26 7 38 19 41 12 3 16 1 11 -6 -3 -7 3 -3 15 7 12 11 22 24 22 30 0 6 -5 4
-10 -4 -8 -12 -10 -9 -8 10 3 22 -2 25 -29 28 l-33 3 0 -60z"/>
<path d="M2076 1828 c3 -4 -1 -8 -8 -8 -10 0 -10 -2 1 -9 8 -5 12 -18 8 -30
-3 -14 0 -21 8 -21 7 0 16 -6 18 -12 3 -7 6 -4 7 7 1 18 1 19 11 2 5 -9 7 -22
3 -29 -4 -7 -3 -8 4 -4 8 5 12 -2 12 -18 0 -14 -5 -26 -11 -26 -6 0 -9 7 -5
15 3 9 0 15 -9 15 -9 0 -12 -8 -10 -21 6 -28 11 -32 42 -37 35 -4 56 -28 51
-57 -3 -13 -2 -24 1 -23 3 0 9 -1 14 -2 4 -1 13 -3 20 -4 6 -1 11 -11 11 -24
-1 -18 1 -20 13 -10 11 9 16 9 24 -3 5 -8 9 -18 9 -22 0 -5 5 -5 10 -2 6 3 10
2 10 -2 0 -5 -12 -14 -27 -20 -27 -10 -26 -10 10 -7 30 2 37 -1 33 -12 -3 -8
1 -14 9 -14 8 0 15 -5 15 -11 0 -8 5 -7 15 1 14 11 14 10 5 -16 -11 -28 -11
-28 9 -9 22 19 30 8 9 -13 -17 -17 -36 -15 -41 6 -4 14 -5 14 -6 1 -2 -26 24
-42 39 -24 7 8 20 15 29 14 10 0 11 -2 4 -6 -7 -2 -13 -9 -13 -14 0 -4 7 -5
17 -2 11 4 14 3 9 -5 -7 -11 5 -16 29 -13 6 1 2 -5 -8 -13 -12 -9 -14 -16 -7
-21 5 -3 8 -10 5 -15 -8 -13 31 -31 51 -23 12 4 15 3 10 -5 -4 -7 -2 -12 4
-12 7 0 10 -6 7 -13 -3 -8 8 -12 37 -12 37 0 41 2 44 28 3 24 0 27 -27 27 -28
0 -31 3 -31 30 0 25 -4 30 -25 30 -21 0 -25 5 -25 30 0 27 -3 30 -30 30 -29 0
-34 7 -31 43 2 13 -5 17 -28 17 -28 0 -31 3 -31 30 0 27 -3 30 -30 30 -25 0
-30 4 -30 25 0 21 -5 25 -30 25 -27 0 -30 3 -30 30 0 25 -4 30 -25 30 -24 0
-25 3 -25 60 l0 60 -30 0 c-26 0 -30 3 -30 29 0 25 -4 29 -34 33 -19 2 -32 0
-30 -4z"/>
<path d="M1659 1692 c5 -10 8 -60 7 -112 -4 -130 0 -147 37 -159 38 -14 60
-14 52 -1 -6 9 7 14 27 11 4 0 7 10 6 24 -2 20 -8 25 -30 25 -15 0 -28 6 -29
13 0 6 0 58 1 115 l1 102 -41 0 c-36 0 -40 -2 -31 -18z"/>
<path d="M1770 1418 c0 -4 17 -8 38 -10 l37 -3 3 -107 c3 -102 4 -107 25 -110
15 -2 23 -11 25 -29 3 -24 8 -27 55 -32 63 -6 67 -4 67 34 0 29 0 29 -60 29
l-60 0 0 114 0 114 -65 4 c-36 1 -65 0 -65 -4z"/>
<path d="M4870 1390 c0 -27 -3 -30 -30 -30 -27 0 -30 -3 -30 -30 l0 -30 -60 0
c-57 0 -60 -1 -60 -25 0 -21 -5 -25 -30 -25 -25 0 -30 -4 -30 -24 0 -45 9 -57
33 -43 29 17 57 45 57 58 0 5 4 7 10 4 11 -7 47 10 75 36 11 10 44 41 74 68
55 50 59 71 15 71 -20 0 -24 -5 -24 -30z"/>
<path d="M5446 1353 c-5 -12 -9 -14 -18 -5 -30 30 -38 13 -38 -73 l0 -85 -60
0 -60 0 0 -30 c0 -27 -3 -30 -30 -30 -21 0 -30 -5 -30 -16 0 -13 3 -14 14 -5
14 12 53 18 123 20 37 1 42 4 45 28 2 19 10 27 27 30 14 2 27 6 30 9 5 5 10
174 5 174 -1 0 -5 -8 -8 -17z"/>
<path d="M4936 1291 c-9 -10 -16 -23 -16 -29 0 -7 -6 -12 -13 -12 -18 0 -49
-35 -40 -44 5 -4 4 -7 -2 -6 -22 5 -35 -1 -60 -25 -14 -14 -25 -22 -25 -18 0
4 -4 3 -8 -3 -4 -5 -24 -20 -44 -33 -21 -12 -38 -26 -38 -31 0 -4 -13 -13 -30
-19 -16 -5 -30 -17 -30 -25 0 -8 -5 -18 -12 -22 -7 -5 -8 -3 -2 7 6 10 0 9
-19 -3 -14 -10 -35 -18 -46 -18 -11 0 -24 -7 -29 -15 -4 -9 -18 -17 -31 -20
-30 -6 -111 -45 -111 -54 0 -4 -12 -8 -27 -9 -40 -3 -133 -34 -128 -43 7 -10
-43 -21 -57 -13 -6 4 -8 3 -5 -3 4 -7 -8 -11 -33 -11 -53 -1 -80 -10 -80 -28
0 -11 -16 -14 -67 -15 -38 0 -88 -3 -113 -6 -25 -3 -126 -5 -225 -5 -301 1
-333 2 -346 18 -6 8 -18 14 -26 14 -26 0 -187 42 -275 72 -49 16 -93 26 -100
22 -6 -4 -8 -3 -5 3 3 5 -9 17 -28 26 l-35 17 0 -30 c0 -30 0 -30 60 -30 l60
0 0 -30 0 -30 85 0 85 0 0 -30 0 -30 145 0 145 0 0 -30 0 -30 265 0 265 0 0
30 0 30 115 0 115 0 0 30 0 30 85 0 85 0 0 30 0 30 60 0 60 0 0 30 0 30 60 0
c57 0 60 1 60 25 0 27 3 28 68 25 41 -1 42 -1 42 29 0 28 3 31 30 31 25 0 30
4 30 24 0 33 14 40 72 37 47 -2 48 -2 48 28 0 26 4 31 25 31 21 0 25 5 25 30
0 27 3 30 30 30 25 0 30 4 30 24 0 31 -24 40 -44 17z"/>
<path d="M2600 1221 c0 -27 3 -29 54 -35 41 -6 55 -12 59 -26 3 -10 0 -23 -6
-29 -7 -7 -3 -8 11 -5 28 8 62 -13 62 -36 0 -19 10 -24 39 -21 8 2 10 -2 5
-11 -6 -10 -5 -10 7 -2 18 15 59 0 59 -20 0 -8 4 -18 10 -21 13 -8 88 -17 133
-16 34 1 38 -2 35 -22 -3 -24 -5 -24 110 -28 53 -2 62 -5 62 -20 0 -32 86 -42
373 -41 327 1 437 10 437 37 0 9 10 12 31 10 17 -3 39 0 48 5 9 4 37 11 61 15
59 9 113 32 105 45 -3 6 -46 10 -96 10 -88 0 -89 0 -89 -25 l0 -25 -145 0
-145 0 0 -30 0 -30 -175 0 -175 0 0 30 0 30 -145 0 -145 0 0 25 c0 25 -1 25
-85 25 l-85 0 0 30 0 30 -63 0 -64 0 5 31 c3 22 1 30 -9 29 -8 -2 -33 -2 -56
-1 -41 1 -43 3 -43 31 l0 30 -60 0 -60 0 0 30 c0 27 -3 30 -30 30 -26 0 -30
-3 -30 -29z"/>
<path d="M4920 871 c0 -23 -5 -30 -22 -33 -24 -3 -25 -6 -27 -75 l-1 -43 -120
0 -120 0 0 -25 c0 -20 -5 -25 -25 -25 -24 0 -25 -3 -24 -52 0 -42 2 -48 9 -30
5 12 16 22 24 22 9 0 16 11 18 28 2 21 9 28 29 30 17 2 29 11 32 23 7 25 57
23 57 -3 0 -15 9 -18 59 -18 54 0 59 2 65 25 4 16 13 25 25 25 16 0 20 11 26
73 4 39 11 80 16 90 7 13 6 17 -6 17 -10 0 -15 -10 -15 -29z"/>
<path d="M2430 695 c0 -25 1 -25 84 -25 76 0 85 2 91 20 7 21 25 28 25 9 0 -5
4 -8 9 -5 5 3 11 -3 14 -14 4 -14 10 -18 23 -13 12 4 15 3 10 -5 -4 -7 -1 -12
8 -12 11 0 17 -15 22 -49 6 -45 9 -49 35 -53 27 -4 29 -2 29 29 0 30 -3 33
-30 33 -30 0 -30 1 -30 55 l0 55 -145 0 -145 0 0 -25z"/>
<path d="M4340 580 c0 -25 -4 -30 -25 -30 -21 0 -25 -5 -25 -30 0 -27 -3 -30
-30 -30 -27 0 -30 -3 -30 -30 0 -27 -3 -30 -30 -30 -27 0 -30 3 -30 30 l0 30
-72 -1 c-40 0 -67 -3 -60 -6 6 -2 12 -16 12 -29 0 -21 5 -24 38 -25 32 0 55
-3 89 -10 4 -1 32 1 61 6 49 7 53 10 49 31 -3 18 2 26 24 36 15 7 26 15 23 19
-10 17 10 39 37 39 26 0 29 4 29 30 0 27 -3 30 -30 30 -27 0 -30 -3 -30 -30z"/>
<path d="M3354 476 c3 -12 6 -26 6 -32 0 -7 9 -14 19 -17 11 -2 21 -15 23 -28
4 -31 54 -44 131 -35 51 7 57 10 57 30 0 24 29 36 86 36 20 0 24 5 24 30 0 25
-4 30 -25 30 -20 0 -25 -5 -25 -24 0 -28 -16 -36 -76 -36 -42 0 -44 -1 -44
-30 0 -27 -3 -30 -30 -30 -27 0 -30 3 -30 30 0 27 -3 30 -30 30 -26 0 -30 3
-30 29 0 24 -5 29 -31 33 -27 4 -30 2 -25 -16z"/>
</g>
</svg>
